:SAMPLES-PER-SECOND 30
:FULLY-SPECIFIED
:DEGREES
456
root  -50.5211 34.2712 24.5695 -173.987 66.0237 176.776
RightUpLeg  -32.9469 -29.9308 5.08562
RightLeg  28.1593 -2.08251 -0.955602
RightFoot  1.82686 0.00724833 0.0713707
RightToes  -40.9004 -0.225715 -0.320152
Spine  1.1473 -2.15003 -2.29116
Spine1  2.26103 -4.31588 -3.87129
HEad  -81.5616 -7.09086 14.9511
LeftShoulder1  -1.94126e-019 -3.10601e-018 -2.51263e-017
LeftArm  2.78064 3.51405 -79.0356
LeftForeArm  47.0292 -9.25316 -1.60517
LeftHand  -0.462545 -2.95011 6.67197
RightShoulder  -4.96962e-017 0 -2.36833e-017
RightArm  -28.755 -17.2109 76.6631
RightForeArm  51.1784 27.3954 3.21094
RightHand  -0.526467 0.0338398 -11.3151
LeftUpLeg  -19.4566 0.660402 -4.29047
LeftLeg  23.6038 12.5588 4.50262
LeftFoot  -3.31215 -0.0230749 -0.636552
LeftToes  -8.5714 1.9075e-006 4.29692e-008
457
root  -50.7419 34.3423 24.7618 -173.635 64.9125 177.64
RightUpLeg  -30.5129 -29.744 3.73877
RightLeg  29.6034 -6.3527 -3.08619
RightFoot  0.834828 0.00308239 0.0834569
RightToes  -35.0585 -0.18026 -0.285542
Spine  0.972217 -1.52668 -2.27665
Spine1  1.90242 -3.01015 -3.87164
HEad  -80.7556 -9.55014 15.0305
LeftShoulder1  -1.94126e-019 -3.10601e-018 -2.51263e-017
LeftArm  3.21018 6.85925 -76.8123
LeftForeArm  39.3948 -13.695 -2.20125
LeftHand  -0.422096 -2.74509 6.24866
RightShoulder  -4.96962e-017 0 -2.36833e-017
RightArm  -26.9517 -16.4688 75.5725
RightForeArm  51.5365 24.8726 2.68296
RightHand  -0.507234 -0.2062 -11.3861
LeftUpLeg  -19.139 -0.238932 -3.76748
LeftLeg  22.7313 12.5 4.27083
LeftFoot  -2.27607 -0.0108073 -0.382494
LeftToes  -8.66592 1.9075e-006 4.29692e-008
458
root  -50.9068 34.4354 24.9794 -173.635 63.6934 178.089
RightUpLeg  -27.1665 -28.0857 1.78934
RightLeg  30.4667 -7.51734 -3.7865
RightFoot  -0.48787 -0.00188389 0.277226
RightToes  -32.7985 -0.163659 -0.270938
Spine  0.76345 -1.25586 -2.40965
Spine1  1.47856 -2.46567 -4.11165
HEad  -79.5226 -11.2912 15.4444
LeftShoulder1  -1.94126e-019 -3.10601e-018 -2.51263e-017
LeftArm  3.77543 11.2911 -73.557
LeftForeArm  30.3715 -19.9284 -2.86613
LeftHand  -0.400003 -2.4359 6.14533
RightShoulder  -4.96962e-017 0 -2.36833e-017
RightArm  -26.5836 -14.8437 75.5601
RightForeArm  53.6428 20.5128 1.75711
RightHand  -0.519677 0.0556611 -11.1273
LeftUpLeg  -18.434 -0.566513 -3.32265
LeftLeg  21.0155 11.6716 3.60988
LeftFoot  -0.944398 -0.00174663 -0.0504117
LeftToes  -9.19098 1.9075e-006 4.29692e-008
459
root  -51.0723 34.5276 25.2158 -173.784 62.0483 177.913
RightUpLeg  -23.7006 -25.9129 -0.171916
RightLeg  30.6134 -6.86214 -3.48211
RightFoot  -2.01615 -0.00229254 0.484853
RightToes  -32.0578 -0.158345 -0.266011
Spine  0.39728 -1.23064 -2.60339
Spine1  0.748924 -2.41537 -4.47192
HEad  -78.2818 -12.7362 15.7527
LeftShoulder1  -1.94126e-019 -3.10601e-018 -2.51263e-017
LeftArm  2.70404 15.5784 -70.3081
LeftForeArm  25.509 -24.4121 -3.8208
LeftHand  -0.360725 -2.53489 5.49964
RightShoulder  -4.96962e-017 0 -2.36833e-017
RightArm  -27.9133 -13.3866 75.9906
RightForeArm  56.6349 16.2912 1.2091
RightHand  -0.51316 0.235555 -10.6534
LeftUpLeg  -18.0435 -2.01623 -3.08986
LeftLeg  19.0925 11.6089 3.17214
LeftFoot  0.736382 -0.000984064 0.314719
LeftToes  -10.4306 1.9075e-006 4.29692e-008
460
root  -51.2045 34.5972 25.4659 -174.128 60.6746 177.447
RightUpLeg  -19.9807 -22.7431 -1.75062
RightLeg  30.0048 -7.05057 -3.48292
RightFoot  -3.49847 0.00315613 0.706164
RightToes  -30.8915 -0.150108 -0.258114
Spine  0.0360228 -1.07678 -2.87816
Spine1  0.0330181 -2.11246 -4.99201
HEad  -77.3713 -14.1748 16.0309
LeftShoulder1  -1.94126e-019 -3.10601e-018 -2.51263e-017
LeftArm  2.171 18.7688 -67.3611
LeftForeArm  24.5661 -26.3957 -4.29472
LeftHand  -0.405932 -2.42593 6.24058
RightShoulder  -4.96962e-017 0 -2.36833e-017
RightArm  -30.7771 -12.6493 76.5673
RightForeArm  59.7273 13.7072 1.39645
RightHand  -0.453912 0.0511107 -9.73424
LeftUpLeg  -17.5268 -3.57328 -2.93323
LeftLeg  16.9364 11.8994 2.77827
LeftFoot  2.47895 -0.0116205 0.698641
LeftToes  -12.1867 1.9075e-006 4.29692e-008
461
root  -51.3282 34.6426 25.7731 -174.516 59.7515 176.624
RightUpLeg  -16.5732 -18.0445 -2.68451
RightLeg  28.8374 -8.40154 -3.93123
RightFoot  -4.38083 0.0131493 0.951512
RightToes  -28.7536 -0.135433 -0.243211
Spine  -0.398233 -0.789834 -3.34066
Spine1  -0.82516 -1.56548 -5.87622
HEad  -76.5183 -15.6502 16.4787
LeftShoulder1  -1.94126e-019 -3.10601e-018 -2.51263e-017
LeftArm  1.25612 20.8207 -64.6115
LeftForeArm  25.9598 -25.6121 -4.04988
LeftHand  -0.480054 -2.33372 7.42292
RightShoulder  -4.96962e-017 0 -2.36833e-017
RightArm  -32.7214 -12.7828 77.6779
RightForeArm  61.6449 13.0114 1.58683
RightHand  -0.426272 -0.00604716 -9.23587
LeftUpLeg  -17.2245 -3.70829 -2.96075
LeftLeg  14.6186 11.1884 2.14523
LeftFoot  4.25124 -0.0319432 1.02216
LeftToes  -14.5639 1.9075e-006 4.29692e-008
462
root  -51.4926 34.6477 26.1374 -174.93 58.9137 175.689
RightUpLeg  -13.4191 -13.3784 -2.90304
RightLeg  26.7259 -9.48115 -4.01175
RightFoot  -5.15186 0.025692 1.18277
RightToes  -29.8811 -0.143103 -0.251139
Spine  -0.683936 -0.598043 -3.82583
Spine1  -1.39103 -1.20385 -6.80952
HEad  -76.5896 -16.2595 16.3627
LeftShoulder1  -1.94126e-019 -3.10601e-018 -2.51263e-017
LeftArm  -0.682142 21.5629 -62.3181
LeftForeArm  26.3307 -22.0892 -3.29145
LeftHand  -0.511146 -1.74074 8.50099
RightShoulder  -4.96962e-017 0 -2.36833e-017
RightArm  -31.8295 -13.1237 78.9752
RightForeArm  61.9496 14.4807 1.78733
RightHand  -0.444105 0.195307 -9.29221
LeftUpLeg  -17.354 -4.15911 -2.97432
LeftLeg  12.9183 10.7572 1.73672
LeftFoot  5.83628 -0.0577088 1.2936
LeftToes  -16.7409 1.9075e-006 4.29692e-008
463
root  -51.7413 34.581 26.5515 -175.221 57.8058 175.06
RightUpLeg  -10.6787 -10.2399 -2.59186
RightLeg  23.5541 -8.81523 -3.17213
RightFoot  -8.07324 0.0698088 1.59058
RightToes  -25.4264 -0.113728 -0.218956
Spine  -0.642118 -0.505652 -4.22021
Spine1  -1.3204 -1.00814 -7.53829
HEad  -78.3393 -16.018 15.4773
LeftShoulder1  -1.94126e-019 -3.10601e-018 -2.51263e-017
LeftArm  -4.63368 21.1054 -60.7783
LeftForeArm  24.8947 -17.7216 -2.57511
LeftHand  -0.470339 -0.769562 8.98914
RightShoulder  -4.96962e-017 0 -2.36833e-017
RightArm  -27.4346 -13.3552 79.7793
RightForeArm  59.8513 17.5568 1.79701
RightHand  -0.458407 0.634363 -8.92853
LeftUpLeg  -18.4188 -5.45987 -2.7888
LeftLeg  12.9814 11.002 1.78811
LeftFoot  6.91559 -0.0836341 1.54562
LeftToes  -18.8814 1.9075e-006 4.29692e-008
464
root  -52.0648 34.4891 27.0401 -174.683 56.6839 175.452
RightUpLeg  -8.39844 -9.10012 -1.72901
RightLeg  18.5252 -8.68751 -2.29142
RightFoot  -10.2314 0.115411 1.88653
RightToes  -21.5206 -0.0900965 -0.188934
Spine  -0.435568 -0.325253 -4.347
Spine1  -0.940755 -0.60875 -7.73082
HEad  -80.0353 -15.4553 13.5729
LeftShoulder1  -1.94126e-019 -3.10601e-018 -2.51263e-017
LeftArm  -10.2091 20.1386 -60.0498
LeftForeArm  23.5777 -15.1294 -2.39867
LeftHand  -0.423712 0.278413 9.66982
RightShoulder  -4.96962e-017 0 -2.36833e-017
RightArm  -22.9301 -13.2952 79.7168
RightForeArm  57.6517 20.5683 1.75414
RightHand  -0.490771 1.26021 -8.70314
LeftUpLeg  -20.5838 -5.58234 -2.24981
LeftLeg  14.7994 10.4076 2.03105
LeftFoot  7.61929 -0.0975814 1.6269
LeftToes  -21.5709 1.9075e-006 4.29692e-008
465
root  -52.4195 34.4773 27.7432 -170.872 56.1183 179.687
RightUpLeg  -8.09406 -10.9894 1.47534
RightLeg  14.9072 -7.72808 -1.52696
RightFoot  -7.78338 0.0500015 1.32792
RightToes  -21.3919 -0.089353 -0.187918
Spine  -0.0829227 0.119648 -3.56405
Spine1  -0.284002 0.33602 -6.22467
HEad  -82.4769 -14.0715 11.6432
LeftShoulder1  -1.94126e-019 -3.10601e-018 -2.51263e-017
LeftArm  -17.0498 18.4772 -60.8996
LeftForeArm  24.0272 -12.5778 -2.13363
LeftHand  -0.37604 1.50512 11.1561
RightShoulder  -4.96962e-017 0 -2.36833e-017
RightArm  -20.3883 -12.2194 78.593
RightForeArm  56.5828 21.7795 1.88996
RightHand  -0.53641 1.28664 -9.46276
LeftUpLeg  -23.8636 -4.54274 0.746145
LeftLeg  18.4425 8.4809 2.22262
LeftFoot  7.04361 -0.0691203 1.2846
LeftToes  -22.5639 1.9075e-006 4.29692e-008
